PathFileType	4	(X/Y/Z)	C:/Users/opensim2020/Desktop/walking_exp_matlab/subject01_walking04_straight_01.trc																																																																																																																															
DataRate	CameraRate	NumFrames	NumMarkers	Units	OrigDataRate	OrigDataStartFrame	OrigNumFrames																																																																																																																											
100	100	5	43	mm	100	947	216																																																																																																																											
Frame#	Time	LFHD			RFHD			LBHD			RBHD			C7			T10			CLAV			STRN			RBAK			LSHO			LUPA			LELB			LFRM			LWRA			LWRB			LFIN			RSHO			RUPA			RELB			RFRM			RWRA			RWRB			RFIN			LASI			RASI			LPSI			RPSI			LTHI			LKNE			LTIB			LANK			LHEE			LTOE			RTHI			RKNE			RTIB			RANK			RHEE			RTOE			*39			*40			*41			*42		
		X1	Y1	Z1	X2	Y2	Z2	X3	Y3	Z3	X4	Y4	Z4	X5	Y5	Z5	X6	Y6	Z6	X7	Y7	Z7	X8	Y8	Z8	X9	Y9	Z9	X10	Y10	Z10	X11	Y11	Z11	X12	Y12	Z12	X13	Y13	Z13	X14	Y14	Z14	X15	Y15	Z15	X16	Y16	Z16	X17	Y17	Z17	X18	Y18	Z18	X19	Y19	Z19	X20	Y20	Z20	X21	Y21	Z21	X22	Y22	Z22	X23	Y23	Z23	X24	Y24	Z24	X25	Y25	Z25	X26	Y26	Z26	X27	Y27	Z27	X28	Y28	Z28	X29	Y29	Z29	X30	Y30	Z30	X31	Y31	Z31	X32	Y32	Z32	X33	Y33	Z33	X34	Y34	Z34	X35	Y35	Z35	X36	Y36	Z36	X37	Y37	Z37	X38	Y38	Z38	X39	Y39	Z39	X40	Y40	Z40	X41	Y41	Z41	X42	Y42	Z42	X43	Y43	Z43
																																																																																																																																		
136	1.35	299.05917	1674.84692	-1104.10791	308.62833	1681.04028	-989.32471	183.06801	1627.36279	-1100.60571	189.81335	1632.82947	-979.3006	143.69998	1438.8772	-1058.78894	102.02669	1146.46326	-1044.97119	284.7254	1366.91809	-1050.73584	324.64093	1211.38416	-1052.276	82.78307	1246.16382	-980.21405	230.6237	1393.04297	-1214.50342	215.10727	1209.68506	-1303.23572	226.39777	1057.78149	-1314.8949	309.89145	976.90106	-1341.42603	434.17297	914.46954	-1326.09729	388.14984	883.34576	-1348.85254	463.06296	846.06525	-1360.77783	217.84328	1399.46033	-901.11652	138.66299	1206.02563	-803.99432	128.31679	1082.6167	-800.29779	142.53899	964.53394	-763.31891	214.14491	841.25684	-770.02277	166.60992	846.7005	-737.39276	198.17647	767.20978	-732.22729	271.78952	932.29779	-1146.59558	272.24612	942.18445	-929.81519	85.8726	949.27826	-1091.57129	88.96402	951.35199	-945.95508	206.63354	600.33423	-1185.8833	177.34413	467.7598	-1165.91089	105.09711	292.08777	-1166.30396	48.10344	83.04005	-1109.30701	-2.85127	61.36925	-1058.23071	190.68608	35.22301	-1109.24011	317.61829	626.54657	-858.43719	370.61145	476.58936	-882.53815	311.10382	310.38367	-879.65851	282.89291	105.3086	-929.60791	239.97923	68.25368	-987.65265	415.33682	54.61303	-915.1355	295.74768	1714.49487	-1013.90253	1973.03259	1023.35187	-3101.91895	2012.4928	1021.93628	-3140.61963	NaN	NaN	NaN
137	1.36	308.75632	1674.45715	-1103.26221	318.16663	1680.33887	-988.42963	192.64684	1627.0824	-1099.89209	199.20041	1632.35803	-978.66522	152.96446	1438.48889	-1058.19397	111.0614	1146.21997	-1044.17078	293.95746	1366.46497	-1050.35596	333.77954	1210.90771	-1052.1123	91.97849	1245.81226	-979.76599	239.8028	1392.81274	-1213.99719	224.87321	1209.60413	-1302.92151	237.32458	1057.93311	-1315.34692	322.36218	978.52502	-1341.77087	447.64807	918.6178	-1326.75769	402.27985	886.35529	-1349.18909	477.78253	850.54077	-1361.17896	227.2173	1398.95361	-900.70526	147.44603	1205.74231	-803.72229	136.58249	1082.38318	-800.09583	150.06288	964.26465	-763.16595	220.78561	840.49463	-770.04016	173.37866	846.35101	-737.2171	204.51489	766.60669	-732.10687	280.16553	931.9198	-1146.51379	281.72073	941.73383	-929.52991	94.60128	948.97925	-1090.48486	98.687	950.49591	-944.97754	211.94771	600.56848	-1185.54797	181.09836	468.1178	-1165.75867	107.23813	293.138	-1166.22485	48.5638	84.38316	-1109.26953	-2.42547	63.25451	-1058.21423	190.71048	35.08968	-1109.24414	324.62482	625.00903	-858.82629	379.75864	476.21347	-883.74915	327.80209	307.8269	-879.62274	312.35657	100.55165	-927.73895	270.22552	61.5348	-985.55273	447.78134	57.55203	-914.29883	305.53827	1714.07813	-1012.57874	1973.04224	1023.38232	-3101.86206	2012.50818	1022.03839	-3140.63599	NaN	NaN	NaN
138	1.37	318.41214	1673.93933	-1102.2887	327.71069	1679.61914	-987.32056	202.24419	1626.70691	-1099.13403	208.66437	1631.75916	-977.92731	162.03694	1438.13232	-1057.46375	120.11009	1145.83765	-1043.22888	303.24457	1365.94507	-1049.92126	342.94925	1210.38147	-1051.83289	101.3251	1245.38879	-979.07745	248.89264	1392.52441	-1213.40808	234.74626	1209.5415	-1302.66187	248.1833	1057.95544	-1315.51697	334.36087	979.87054	-1342.13403	460.90112	922.47034	-1327.26086	416.12683	889.26367	-1349.49817	492.28812	855.06848	-1361.70447	236.77989	1398.52173	-900.02374	156.28094	1205.43555	-803.33734	144.92052	1082.14575	-799.75812	157.7207	963.89807	-763.00153	227.88065	839.77509	-769.8205	180.01118	845.71411	-737.13678	211.01295	765.99091	-731.9292	288.67975	931.63678	-1146.39575	291.58551	941.34802	-929.23566	103.43383	948.68542	-1089.26978	107.89402	950.2077	-943.82581	217.39528	600.77753	-1185.2644	185.14113	468.61636	-1165.63721	109.53773	294.20718	-1166.18347	49.15668	85.83158	-1109.13831	-1.93615	65.37719	-1058.26074	190.78	35.15315	-1109.31995	331.45364	623.25018	-859.1936	388.58432	475.53314	-885.06946	344.71289	305.3063	-879.51746	341.12045	96.91993	-926.0177	300.73712	55.22318	-983.42828	479.12048	61.23089	-913.98395	315.3688	1713.51379	-1011.46326	1973.27661	1023.36517	-3101.80884	2012.51807	1022.04205	-3140.72266	NaN	NaN	NaN
139	1.38	328.07086	1673.31897	-1101.11487	337.13129	1678.7821	-986.58649	211.8129	1626.29395	-1098.25623	218.17635	1631.15491	-977.00903	171.28123	1437.61157	-1056.67261	129.26009	1145.33252	-1042.17236	312.4306	1365.38745	-1049.30042	352.20706	1209.83618	-1051.54407	110.68618	1244.79382	-978.26367	257.91302	1392.21533	-1212.81763	244.68663	1209.42639	-1302.19641	259.00192	1057.94702	-1315.6178	346.52356	981.29114	-1342.2251	473.87424	926.08301	-1327.64209	429.71826	892.06732	-1349.83997	506.47726	859.30798	-1362.23779	246.18188	1397.7688	-899.43109	165.14151	1205.01172	-802.86316	153.38145	1081.75989	-799.41986	165.54207	963.54205	-762.73383	235.03273	838.97107	-769.44318	187.38637	845.2403	-736.97882	217.55505	765.18341	-731.7749	297.25372	931.44299	-1146.33398	301.28482	940.75995	-929.04047	112.37619	948.3515	-1087.93494	117.51653	949.72583	-942.59821	222.97075	600.90924	-1185.02917	189.41287	468.94876	-1165.52563	112.00491	295.34323	-1166.1062	49.81204	87.39241	-1109.13611	-1.22847	67.44874	-1058.10217	190.86241	35.29132	-1109.44885	338.15088	621.31433	-859.46222	397.38437	474.61234	-886.4046	361.57901	303.16205	-879.39868	368.67627	94.05752	-924.93756	330.78217	49.69407	-980.9212	509.02014	65.52454	-913.9964	324.75748	1712.65137	-1010.51111	1972.92346	1023.92249	-3101.99951	2012.52295	1021.84485	-3140.6062	NaN	NaN	NaN
140	1.39	337.68347	1672.6178	-1100.16675	346.72159	1677.96777	-985.47797	221.32268	1625.80505	-1097.38721	227.66585	1630.50671	-976.03918	180.55896	1436.96667	-1055.69507	138.51941	1144.65076	-1041.04468	321.70978	1364.77844	-1048.66016	361.43704	1209.24426	-1051.15247	120.09264	1244.07959	-977.2182	266.96658	1391.80737	-1211.98157	254.66199	1209.31519	-1301.7406	269.74609	1057.78674	-1315.4884	358.4144	982.56732	-1342.24219	486.66092	929.42041	-1327.85852	443.00525	894.70831	-1350.06763	520.31085	863.10547	-1362.58398	255.73495	1397.25696	-898.65344	174.06316	1204.52161	-802.23639	162.01802	1081.35437	-798.93933	173.39688	962.96527	-762.43402	242.04411	837.97925	-769.44177	194.57266	844.51709	-736.76953	224.34151	764.34839	-731.5777	306.02798	931.29822	-1146.24792	311.27274	940.1272	-928.8653	121.43485	947.96649	-1086.45679	127.8646	948.79492	-941.47241	228.79242	601.1615	-1184.9342	193.97273	469.36591	-1165.3606	114.61433	296.59851	-1166.05127	50.53718	89.01579	-1109.04248	-0.6642	69.53458	-1057.76599	190.85353	35.0797	-1109.72449	345.19629	619.07397	-859.0694	406.24759	473.58557	-887.59149	378.2695	301.05707	-879.38092	395.40015	91.93632	-923.79871	359.23746	45.76384	-979.46686	537.18365	70.33777	-914.42963	334.22549	1711.63574	-1009.74591	1973.10547	1023.24951	-3101.86719	2012.65491	1022.17096	-3140.64063	NaN	NaN	NaN
